<svg xmlns="http://www.w3.org/2000/svg" xmlns:xlink="http://www.w3.org/1999/xlink" width="200" zoomAndPan="magnify" viewBox="0 0 150 149.999998" height="200" preserveAspectRatio="xMidYMid meet" version="1.0"><defs><clipPath id="0c6f9fd752"><path d="M 13.496094 0 L 134.996094 0 L 134.996094 121 L 13.496094 121 Z M 13.496094 0 " clip-rule="nonzero"/></clipPath><clipPath id="f3e6bc110e"><path d="M 13.496094 30 L 134.996094 30 L 134.996094 149.996094 L 13.496094 149.996094 Z M 13.496094 30 " clip-rule="nonzero"/></clipPath></defs><g clip-path="url(#0c6f9fd752)"><path fill="#ffffff" d="M 76.523438 120.011719 L 134.914062 0.804688 L 74.425781 34.742188 L 13.367188 0.238281 Z M 76.523438 120.011719 " fill-opacity="1" fill-rule="nonzero"/></g><g clip-path="url(#f3e6bc110e)"><path fill="#ffffff" d="M 13.449219 31.273438 C 13.449219 30.949219 13.570312 30.625 13.8125 30.382812 C 14.214844 30.019531 14.78125 29.941406 15.265625 30.183594 L 74.464844 63.597656 L 133.058594 30.789062 C 133.542969 30.503906 134.109375 30.585938 134.511719 30.949219 C 134.914062 31.3125 134.996094 31.878906 134.753906 32.363281 L 77.570312 149.066406 C 77.371094 149.472656 76.964844 149.753906 76.523438 149.753906 C 76.078125 149.753906 75.632812 149.511719 75.433594 149.109375 L 13.570312 31.835938 C 13.488281 31.675781 13.449219 31.472656 13.449219 31.273438 Z M 130.878906 34.78125 L 75.070312 66.058594 C 74.707031 66.257812 74.261719 66.257812 73.898438 66.058594 L 17.644531 34.339844 L 76.441406 145.878906 Z M 130.878906 34.78125 " fill-opacity="1" fill-rule="nonzero"/></g></svg>