<svg xmlns="http://www.w3.org/2000/svg" xmlns:xlink="http://www.w3.org/1999/xlink" width="200" zoomAndPan="magnify" viewBox="0 0 150 149.999998" height="200" preserveAspectRatio="xMidYMid meet" version="1.0"><defs><clipPath id="fade7507d9"><path d="M 1 54 L 149 54 L 149 141.5625 L 1 141.5625 Z M 1 54 " clip-rule="nonzero"/></clipPath><clipPath id="2a6a6bcbe3"><path d="M 1 8.0625 L 149 8.0625 L 149 99 L 1 99 Z M 1 8.0625 " clip-rule="nonzero"/></clipPath></defs><g clip-path="url(#fade7507d9)"><path fill="#ffffff" d="M 134.3125 57.238281 L 75.125 120.925781 L 15.9375 57.238281 C 12.765625 53.828125 7.375 53.628906 3.960938 56.804688 C 0.550781 59.976562 0.351562 65.363281 3.523438 68.777344 L 68.625 138.824219 C 70.355469 140.691406 72.75 141.585938 75.125 141.507812 C 77.5 141.585938 79.894531 140.691406 81.625 138.824219 L 146.726562 68.777344 C 149.898438 65.363281 149.703125 59.976562 146.289062 56.804688 C 142.875 53.628906 137.484375 53.828125 134.3125 57.238281 " fill-opacity="1" fill-rule="nonzero"/></g><g clip-path="url(#2a6a6bcbe3)"><path fill="#ffffff" d="M 66.507812 94.410156 C 68.648438 96.710938 71.6875 98.03125 74.847656 98.03125 C 74.941406 98.03125 75.035156 98.027344 75.128906 98.027344 C 75.222656 98.027344 75.3125 98.03125 75.40625 98.03125 C 78.566406 98.03125 81.605469 96.710938 83.746094 94.410156 L 145.871094 27.5625 C 147.9375 25.339844 149.011719 22.441406 148.898438 19.398438 C 148.789062 16.351562 147.503906 13.539062 145.285156 11.476562 C 143.179688 9.519531 140.429688 8.4375 137.539062 8.4375 C 134.378906 8.4375 131.335938 9.761719 129.195312 12.0625 L 75.128906 70.242188 L 21.058594 12.0625 C 18.917969 9.761719 15.875 8.4375 12.714844 8.4375 C 9.828125 8.4375 7.078125 9.519531 4.972656 11.476562 C 0.375 15.746094 0.109375 22.964844 4.382812 27.5625 L 66.507812 94.410156 " fill-opacity="1" fill-rule="nonzero"/></g></svg>