<svg xmlns="http://www.w3.org/2000/svg" xmlns:xlink="http://www.w3.org/1999/xlink" width="200" zoomAndPan="magnify" viewBox="0 0 150 149.999998" height="200" preserveAspectRatio="xMidYMid meet" version="1.0"><defs><clipPath id="baa53353b2"><path d="M 27.285156 46 L 122.535156 46 L 122.535156 105 L 27.285156 105 Z M 27.285156 46 " clip-rule="nonzero"/></clipPath><clipPath id="906a8cb3dc"><path d="M 27.285156 90 L 122.535156 90 L 122.535156 148.125 L 27.285156 148.125 Z M 27.285156 90 " clip-rule="nonzero"/></clipPath><clipPath id="3dd08029e7"><path d="M 27.285156 1.875 L 122.535156 1.875 L 122.535156 60 L 27.285156 60 Z M 27.285156 1.875 " clip-rule="nonzero"/></clipPath></defs><g clip-path="url(#baa53353b2)"><path fill="#ffffff" d="M 105.253906 48.652344 L 104.414062 49.492188 C 104.355469 49.558594 104.316406 49.632812 104.257812 49.703125 L 74.964844 78.992188 L 46.042969 50.074219 C 46.03125 50.058594 44.871094 48.734375 44.191406 48.207031 C 44.175781 48.195312 44.160156 48.183594 44.136719 48.171875 C 42.390625 46.824219 40.207031 46.015625 37.832031 46.015625 C 35.179688 46.015625 32.773438 47.015625 30.9375 48.652344 L 30.09375 49.492188 C 28.460938 51.324219 27.457031 53.734375 27.457031 56.386719 C 27.457031 59.109375 28.519531 61.585938 30.238281 63.4375 L 30.359375 63.558594 C 30.355469 63.558594 30.351562 63.558594 30.347656 63.5625 C 30.347656 63.5625 68.378906 101.648438 68.625 101.839844 C 70.378906 103.199219 72.574219 104.015625 74.964844 104.015625 C 77.355469 104.015625 79.546875 103.199219 81.300781 101.839844 C 82 101.304688 118.839844 64.300781 118.839844 64.300781 L 120.0625 63.078125 C 121.59375 61.269531 122.519531 58.933594 122.519531 56.386719 C 122.519531 53.984375 121.695312 51.78125 120.328125 50.023438 C 119.800781 49.347656 119.1875 48.734375 118.507812 48.207031 C 116.753906 46.835938 114.550781 46.015625 112.148438 46.015625 C 109.589844 46.015625 107.273438 46.960938 105.46875 48.492188 C 105.398438 48.550781 105.324219 48.589844 105.253906 48.652344 " fill-opacity="1" fill-rule="nonzero"/></g><g clip-path="url(#906a8cb3dc)"><path fill="#ffffff" d="M 105.253906 92.78125 L 104.414062 93.621094 C 104.355469 93.6875 104.316406 93.765625 104.257812 93.832031 L 74.964844 123.128906 L 46.042969 94.207031 C 46.03125 94.1875 44.871094 92.867188 44.191406 92.339844 C 44.175781 92.324219 44.160156 92.316406 44.136719 92.304688 C 42.390625 90.957031 40.207031 90.144531 37.832031 90.144531 C 35.179688 90.144531 32.773438 91.144531 30.9375 92.78125 L 30.09375 93.621094 C 28.460938 95.457031 27.457031 97.867188 27.457031 100.515625 C 27.457031 103.242188 28.519531 105.71875 30.238281 107.566406 L 30.359375 107.6875 C 30.355469 107.691406 30.351562 107.691406 30.347656 107.695312 C 30.347656 107.695312 68.378906 145.78125 68.625 145.972656 C 70.378906 147.332031 72.574219 148.148438 74.964844 148.148438 C 77.355469 148.148438 79.546875 147.332031 81.300781 145.972656 C 82 145.433594 118.839844 108.433594 118.839844 108.433594 L 120.0625 107.207031 C 121.59375 105.402344 122.519531 103.070312 122.519531 100.515625 C 122.519531 98.117188 121.695312 95.914062 120.328125 94.15625 C 119.800781 93.476562 119.1875 92.867188 118.507812 92.339844 C 116.753906 90.96875 114.550781 90.144531 112.148438 90.144531 C 109.589844 90.144531 107.273438 91.09375 105.46875 92.625 C 105.398438 92.679688 105.324219 92.726562 105.253906 92.78125 " fill-opacity="1" fill-rule="nonzero"/></g><g clip-path="url(#3dd08029e7)"><path fill="#ffffff" d="M 105.253906 4.515625 L 104.414062 5.359375 C 104.355469 5.421875 104.316406 5.503906 104.257812 5.570312 L 74.964844 34.863281 L 46.042969 5.941406 C 46.03125 5.925781 44.871094 4.601562 44.191406 4.074219 C 44.175781 4.0625 44.160156 4.050781 44.136719 4.039062 C 42.390625 2.691406 40.207031 1.878906 37.832031 1.878906 C 35.179688 1.878906 32.773438 2.882812 30.9375 4.515625 L 30.09375 5.359375 C 28.460938 7.191406 27.457031 9.601562 27.457031 12.25 C 27.457031 14.976562 28.519531 17.449219 30.238281 19.304688 L 30.359375 19.421875 C 30.355469 19.425781 30.351562 19.429688 30.347656 19.433594 C 30.347656 19.433594 68.378906 57.519531 68.625 57.710938 C 70.378906 59.070312 72.574219 59.886719 74.964844 59.886719 C 77.355469 59.886719 79.546875 59.066406 81.300781 57.710938 C 82 57.167969 118.839844 20.171875 118.839844 20.171875 L 120.0625 18.945312 C 121.59375 17.136719 122.519531 14.804688 122.519531 12.25 C 122.519531 9.851562 121.695312 7.644531 120.328125 5.890625 C 119.800781 5.210938 119.1875 4.601562 118.507812 4.074219 C 116.753906 2.703125 114.550781 1.878906 112.148438 1.878906 C 109.589844 1.878906 107.273438 2.828125 105.46875 4.359375 C 105.398438 4.417969 105.324219 4.457031 105.253906 4.515625 " fill-opacity="1" fill-rule="nonzero"/></g></svg>