<svg xmlns="http://www.w3.org/2000/svg" xmlns:xlink="http://www.w3.org/1999/xlink" width="100" zoomAndPan="magnify" viewBox="0 0 75 74.999997" height="100" preserveAspectRatio="xMidYMid meet" version="1.0"><defs><clipPath id="5f44e31747"><path d="M 0 2.0625 L 75 2.0625 L 75 74.8125 L 0 74.8125 Z M 0 2.0625 " clip-rule="nonzero"/></clipPath></defs><g clip-path="url(#5f44e31747)"><path fill="#231f20" d="M 53.929688 19.3125 C 54.039062 19.292969 54.148438 19.265625 54.257812 19.242188 C 54.957031 19.074219 55.929688 18.695312 56.558594 19.175781 C 57.046875 18.988281 57.566406 18.945312 58.007812 19.3125 C 58.214844 19.488281 58.328125 19.6875 58.402344 19.921875 C 58.410156 19.917969 58.417969 19.910156 58.425781 19.90625 C 58.617188 19.773438 58.828125 19.683594 59.050781 19.640625 C 59.101562 19.585938 59.152344 19.535156 59.21875 19.480469 C 59.714844 19.082031 60.292969 19.117188 60.84375 19.34375 C 61.089844 19.175781 61.359375 19.007812 61.632812 18.9375 C 62.105469 18.816406 62.554688 18.742188 63.023438 18.9375 C 63.199219 19.007812 63.339844 19.109375 63.484375 19.210938 C 63.742188 18.925781 63.980469 18.691406 64.394531 18.582031 C 64.996094 18.425781 65.535156 18.675781 65.953125 19.09375 C 66.136719 19.277344 66.277344 19.480469 66.390625 19.710938 C 66.410156 19.753906 66.425781 19.796875 66.445312 19.839844 C 66.546875 19.839844 66.664062 19.828125 66.75 19.824219 C 67.335938 19.800781 67.925781 19.84375 68.363281 20.292969 C 68.507812 20.4375 68.609375 20.605469 68.675781 20.789062 C 68.976562 20.890625 69.472656 20.984375 69.679688 21.027344 C 70.414062 21.171875 71.601562 21.316406 72.074219 21.945312 L 72.285156 22.230469 L 72.15625 32.210938 C 72.160156 32.214844 72.164062 32.222656 72.167969 32.226562 C 72.175781 32.226562 72.183594 32.230469 72.191406 32.234375 C 72.726562 32.382812 73.078125 32.539062 73.445312 32.988281 C 73.875 33.519531 73.75 34.238281 73.75 34.863281 C 73.75 35.066406 73.839844 35.203125 73.925781 35.378906 C 74.117188 35.785156 74.230469 36.148438 74.230469 36.601562 C 74.230469 36.777344 74.191406 36.921875 74.15625 37.058594 C 74.375 37.34375 74.476562 37.671875 74.503906 38.0625 C 74.90625 38.886719 75.003906 39.695312 74.695312 40.597656 C 74.515625 41.117188 74.132812 41.710938 74.132812 42.261719 C 74.132812 42.367188 74.179688 42.488281 74.199219 42.59375 C 74.269531 43.011719 74.160156 43.367188 73.972656 43.738281 C 73.847656 43.976562 73.699219 44.183594 73.539062 44.394531 C 73.515625 44.425781 73.480469 44.46875 73.449219 44.511719 C 73.996094 45.21875 74.039062 46.285156 73.507812 47.011719 C 73.386719 47.183594 73.222656 47.355469 73.105469 47.519531 C 73.1875 47.585938 73.269531 47.65625 73.355469 47.757812 C 73.605469 48.035156 73.734375 48.40625 73.675781 48.78125 C 73.554688 49.535156 72.84375 49.859375 72.179688 50.003906 C 71.871094 50.074219 71.460938 50.128906 71.144531 50.09375 C 70.980469 50.078125 70.824219 50.042969 70.667969 50 C 70.550781 50.152344 70.445312 50.285156 70.277344 50.410156 C 70.011719 50.613281 69.675781 50.738281 69.371094 50.863281 C 69.308594 50.886719 69.222656 50.917969 69.144531 50.953125 C 69.144531 50.953125 69.144531 50.957031 69.144531 50.957031 C 69.054688 51.3125 69.023438 51.632812 68.890625 51.984375 C 68.621094 52.6875 67.941406 52.765625 67.308594 52.84375 C 67.261719 52.847656 67.199219 52.855469 67.140625 52.863281 C 66.648438 53.375 65.992188 54.125 65.34375 54.238281 C 65.054688 54.289062 64.773438 54.320312 64.484375 54.351562 C 64.417969 54.359375 64.285156 54.371094 64.214844 54.390625 C 64.101562 54.472656 63.882812 54.792969 63.808594 54.898438 C 63.191406 55.792969 62.160156 56.304688 61.128906 56.578125 C 60.449219 56.878906 59.332031 57.207031 58.929688 57.808594 C 58.816406 57.976562 58.683594 58.132812 58.535156 58.277344 C 58.226562 58.566406 57.871094 58.78125 57.496094 58.972656 C 57.332031 59.054688 56.511719 59.417969 56.441406 59.578125 C 56.304688 59.890625 56.222656 60.222656 56.078125 60.527344 C 55.835938 61.023438 55.453125 61.347656 55.007812 61.65625 C 54.867188 61.753906 54.839844 62.078125 54.839844 62.222656 L 54.839844 62.285156 L 54.832031 62.351562 C 54.792969 62.660156 54.738281 62.96875 54.675781 63.273438 C 54.449219 64.414062 53.980469 65.828125 54.066406 66.984375 C 54.105469 67.519531 54.261719 67.992188 54.5625 68.4375 C 54.972656 69.042969 55.199219 70.101562 55.289062 70.820312 C 55.414062 71.796875 55.4375 73.195312 54.609375 73.894531 C 54.171875 74.261719 53.808594 74.199219 53.328125 74.167969 C 52.753906 74.484375 52.136719 74.773438 51.460938 74.652344 C 50.847656 74.546875 50.40625 74.148438 50.050781 73.664062 C 50.019531 73.621094 49.996094 73.59375 49.945312 73.578125 C 49.738281 73.503906 49.269531 73.570312 49.050781 73.59375 C 48.191406 73.691406 47.378906 73.738281 46.636719 73.207031 C 46.320312 72.976562 46.046875 72.695312 45.738281 72.476562 C 45.480469 72.289062 45.230469 72.261719 44.914062 72.261719 L 44.722656 72.261719 L 44.542969 72.195312 C 43.863281 71.9375 43.640625 71.890625 43.367188 71.25 C 43.316406 71.25 43.265625 71.246094 43.207031 71.238281 C 42.78125 71.183594 42.429688 70.964844 42.164062 70.632812 C 41.75 70.121094 41.503906 69.351562 41.503906 68.691406 L 41.503906 68.675781 C 41.492188 68.664062 41.480469 68.65625 41.46875 68.644531 C 40.960938 68.132812 40.703125 67.722656 40.691406 66.984375 C 40.644531 66.699219 40.441406 66.019531 40.3125 65.679688 L 40.234375 65.527344 C 40.144531 65.355469 39.972656 65.171875 39.867188 64.984375 C 39.695312 64.6875 39.609375 64.375 39.609375 64.03125 C 39.609375 63.726562 39.664062 63.503906 39.773438 63.285156 C 39.585938 63.117188 39.296875 62.890625 39.109375 62.765625 L 38.742188 62.765625 L 38.4375 62.242188 C 38.152344 61.75 37.378906 59.882812 36.976562 59.484375 C 35.34375 59.21875 34.847656 57.699219 34.847656 56.226562 C 34.847656 56.125 34.828125 56.066406 34.769531 55.984375 C 34.574219 55.707031 34.273438 55.453125 34.054688 55.167969 C 33.617188 54.589844 33.417969 53.957031 33.417969 53.230469 C 33.417969 53.117188 33.425781 52.953125 33.421875 52.8125 C 33.347656 52.757812 33.261719 52.707031 33.199219 52.664062 C 32.847656 52.417969 32.578125 51.949219 32.363281 51.578125 C 32.261719 51.402344 32.144531 51.167969 32.027344 50.992188 L 32.007812 50.972656 C 31.753906 50.71875 31.363281 50.183594 31.074219 49.933594 C 30.375 49.886719 29.765625 49.679688 29.535156 48.929688 C 29.507812 48.839844 29.460938 48.667969 29.414062 48.507812 C 28.757812 48.796875 28.242188 48.96875 27.601562 48.398438 C 26.777344 48.421875 25.945312 48.5 25.128906 48.394531 C 25.078125 48.386719 25.03125 48.378906 24.988281 48.367188 C 24.671875 48.71875 24.15625 48.890625 23.671875 49.003906 C 23.679688 49.609375 23.46875 50.277344 23.289062 50.75 C 23.183594 51.019531 23.015625 51.207031 22.808594 51.34375 C 22.808594 51.378906 22.804688 51.414062 22.800781 51.453125 C 22.710938 52.132812 22.234375 52.359375 21.75 52.6875 C 21.699219 53.289062 21.453125 53.855469 20.847656 54.117188 C 20.210938 54.390625 19.566406 54.144531 19.007812 53.816406 C 18.832031 53.714844 18.628906 53.5625 18.449219 53.46875 L 18.207031 53.40625 L 17.992188 53.164062 C 17.871094 53.03125 17.808594 52.917969 17.753906 52.800781 C 17.515625 52.78125 17.285156 52.726562 17.058594 52.597656 C 16.785156 52.441406 16.628906 52.238281 16.441406 52.011719 C 16.335938 51.976562 16.214844 51.953125 16.109375 51.914062 C 15.191406 51.578125 14.128906 50.816406 13.417969 50.121094 C 13.183594 49.960938 12.945312 49.816406 12.714844 49.640625 C 12.53125 49.5 12.632812 49.585938 12.484375 49.4375 C 12.355469 49.308594 12.128906 48.996094 11.996094 48.90625 C 11.878906 48.828125 11.875 48.824219 11.785156 48.726562 C 11.566406 48.5 11.476562 48.28125 11.390625 48.011719 L 11.078125 47.90625 L 10.964844 47.296875 C 10.925781 47.082031 10.941406 46.910156 10.929688 46.722656 C 10.609375 46.417969 10.46875 46.191406 10.410156 45.714844 C 10.363281 45.371094 10.429688 45.089844 10.597656 44.820312 C 10.558594 44.789062 10.515625 44.761719 10.488281 44.738281 C 9.976562 44.332031 9.640625 43.859375 9.628906 43.179688 C 9.625 43.097656 9.621094 42.980469 9.609375 42.890625 C 9.539062 42.839844 9.441406 42.78125 9.382812 42.746094 C 9.09375 42.570312 8.964844 42.398438 8.835938 42.171875 L 8.664062 42.171875 L 8.363281 41.90625 C 8.332031 41.878906 8.289062 41.839844 8.253906 41.8125 C 7.808594 41.640625 7.4375 41.339844 7.246094 40.910156 C 6.800781 40.71875 6.460938 40.550781 6.152344 40.089844 C 6.042969 39.921875 5.972656 39.777344 5.925781 39.628906 C 5.417969 39.449219 5.082031 39.035156 4.757812 38.609375 C 4.6875 38.519531 4.550781 38.328125 4.464844 38.257812 C 4.195312 38.089844 4.082031 37.925781 3.953125 37.710938 C 3.839844 37.695312 3.714844 37.679688 3.628906 37.671875 L 3.347656 37.636719 L 3.121094 37.464844 C 2.472656 36.96875 2.160156 36.546875 2.019531 35.886719 C 1.929688 35.859375 1.839844 35.832031 1.757812 35.804688 C 1.117188 35.574219 0.574219 35.175781 0.402344 34.542969 C 0.136719 34.296875 0 33.96875 0 33.558594 C 0 32.867188 0.277344 32.234375 0.964844 31.976562 L 1.144531 31.910156 L 20.035156 31.910156 L 20.035156 2.109375 L 39.242188 2.109375 L 39.046875 15.101562 C 39.371094 15.292969 39.644531 15.542969 39.804688 15.859375 C 39.90625 15.863281 40.007812 15.863281 40.074219 15.863281 C 40.1875 15.863281 40.300781 15.859375 40.417969 15.859375 C 40.863281 15.289062 41.464844 14.800781 42.238281 15.019531 C 43.066406 15.25 43.339844 16.105469 43.542969 16.835938 C 43.550781 16.859375 43.558594 16.894531 43.570312 16.921875 C 43.832031 16.980469 44.785156 16.925781 45.011719 16.925781 C 45.449219 16.925781 45.824219 17.113281 46.128906 17.398438 C 46.144531 17.386719 46.15625 17.378906 46.171875 17.371094 C 46.855469 16.945312 47.625 16.753906 48.371094 17.164062 C 48.675781 17.332031 48.882812 17.546875 49.113281 17.796875 C 49.152344 17.839844 49.222656 17.917969 49.273438 17.953125 C 49.582031 18.078125 49.84375 18.257812 50.078125 18.492188 C 50.132812 18.546875 50.191406 18.617188 50.25 18.679688 C 50.324219 18.660156 50.40625 18.628906 50.457031 18.613281 C 51.035156 18.390625 51.644531 18.152344 52.234375 18.511719 C 52.375 18.601562 52.445312 18.679688 52.550781 18.785156 C 52.566406 18.792969 52.585938 18.800781 52.597656 18.804688 C 52.746094 18.863281 52.851562 18.929688 52.945312 19.003906 C 53.242188 18.96875 53.527344 19.0625 53.796875 19.226562 C 53.839844 19.25 53.882812 19.28125 53.929688 19.3125 " fill-opacity="1" fill-rule="evenodd"/></g><path fill="#d71920" d="M 73.144531 37.53125 L 41.324219 37.53125 L 41.324219 65.398438 C 41.496094 65.886719 41.742188 66.742188 41.742188 66.929688 C 41.742188 67.929688 42.554688 67.765625 42.554688 68.691406 C 42.554688 69.109375 42.71875 69.648438 42.984375 69.976562 C 43.464844 70.570312 43.882812 69.667969 44.296875 70.738281 C 44.429688 71.089844 44.324219 70.992188 44.914062 71.214844 C 46.21875 71.214844 46.460938 71.785156 47.253906 72.355469 C 48.285156 73.097656 50.023438 71.847656 50.902344 73.046875 C 51.511719 73.878906 51.960938 73.726562 52.9375 73.179688 C 53.265625 73 53.738281 73.257812 53.929688 73.09375 C 54.660156 72.476562 54.167969 69.730469 53.691406 69.023438 C 52.238281 66.871094 53.488281 64.597656 53.789062 62.222656 C 53.789062 61.707031 53.933594 61.121094 54.40625 60.792969 C 55.292969 60.183594 55.097656 60.011719 55.480469 59.152344 C 55.890625 58.234375 57.417969 58.179688 58.054688 57.226562 C 58.679688 56.296875 59.761719 56.0625 60.773438 55.585938 C 61.609375 55.375 62.472656 54.984375 62.945312 54.300781 C 63.753906 53.136719 63.839844 53.433594 65.164062 53.207031 C 65.445312 53.15625 66.253906 52.261719 66.523438 51.992188 C 66.78125 51.738281 67.820312 51.835938 67.90625 51.613281 C 68.070312 51.179688 68.054688 50.71875 68.265625 50.304688 C 68.402344 50.03125 69.34375 49.808594 69.636719 49.578125 C 69.878906 49.394531 70.035156 48.925781 70.4375 48.910156 C 70.714844 48.898438 70.980469 49.023438 71.261719 49.054688 C 71.570312 49.085938 72.949219 48.875 72.574219 48.457031 C 72.273438 48.121094 72.011719 48.242188 72.011719 47.667969 C 72.011719 47.011719 72.316406 46.898438 72.652344 46.402344 C 72.921875 46.046875 72.878906 45.476562 72.605469 45.140625 C 71.929688 44.3125 72.671875 43.972656 73.035156 43.261719 C 73.304688 42.730469 73.082031 42.773438 73.082031 42.261719 C 73.082031 40.734375 74.460938 40.132812 73.464844 38.335938 C 73.464844 37.921875 73.410156 37.730469 73.144531 37.53125 " fill-opacity="1" fill-rule="evenodd"/><path fill="#283b7e" d="M 41.324219 37.53125 L 41.324219 16.40625 C 41.214844 16.539062 41.089844 16.710938 40.957031 16.929688 C 40.339844 16.855469 38.90625 17.070312 38.90625 16.5 C 38.90625 16.097656 38.261719 15.898438 37.984375 15.726562 L 38.175781 3.160156 L 21.085938 3.160156 L 21.085938 32.960938 L 1.332031 32.960938 C 1.109375 33.042969 1.050781 33.269531 1.050781 33.558594 C 1.050781 33.960938 1.398438 33.75 1.398438 34.109375 C 1.398438 34.917969 2.960938 34.890625 2.984375 35.195312 C 3.039062 35.941406 3.175781 36.1875 3.761719 36.628906 C 3.984375 36.65625 4.3125 36.695312 4.523438 36.773438 C 4.785156 36.867188 4.789062 37.226562 5.023438 37.371094 C 5.488281 37.65625 5.863281 38.5625 6.347656 38.660156 C 7.078125 38.8125 6.699219 39.015625 7.03125 39.507812 C 7.226562 39.804688 7.507812 39.882812 7.832031 40.019531 C 7.960938 40.0625 8.144531 40.25 8.175781 40.390625 C 8.230469 40.625 8.4375 40.761719 8.652344 40.839844 C 8.808594 40.902344 8.9375 41.011719 9.066406 41.125 C 9.753906 41.125 9.550781 41.617188 9.9375 41.855469 C 10.582031 42.253906 10.640625 42.371094 10.683594 43.148438 C 10.683594 44.078125 12.105469 44.007812 11.625 45.121094 C 11.597656 45.328125 11.417969 45.320312 11.453125 45.582031 C 11.5 45.957031 11.632812 45.875 11.828125 46.152344 C 12.058594 46.484375 11.933594 46.742188 12 47.109375 C 12.4375 47.253906 12.304688 47.847656 12.589844 48.042969 C 12.914062 48.261719 13.078125 48.59375 13.359375 48.8125 C 13.605469 49.003906 13.828125 49.125 14.09375 49.316406 C 14.695312 49.914062 15.6875 50.644531 16.46875 50.929688 C 16.734375 51.023438 16.988281 51.027344 17.1875 51.261719 C 17.605469 51.761719 17.507812 51.765625 18.320312 51.765625 C 18.550781 51.765625 18.617188 52.289062 18.777344 52.46875 C 19.183594 52.570312 20.707031 54.042969 20.707031 52.445312 C 20.707031 51.734375 22.132812 51.582031 21.660156 51.113281 C 21.109375 50.5625 22.183594 50.6875 22.304688 50.375 C 22.402344 50.125 22.796875 48.910156 22.542969 48.710938 C 21.59375 47.953125 24.238281 48.148438 24.238281 47.542969 C 24.238281 46.820312 24.933594 47.3125 25.261719 47.355469 C 26.035156 47.453125 26.957031 47.359375 27.796875 47.34375 C 28.710938 47.648438 28.042969 47.96875 29.179688 47.464844 C 30.152344 47.035156 30.285156 47.792969 30.539062 48.625 C 30.644531 48.957031 31.09375 48.839844 31.421875 48.921875 C 31.761719 49.003906 32.484375 49.960938 32.75 50.230469 C 32.902344 50.28125 33.492188 51.589844 33.800781 51.800781 C 34.5 52.289062 34.46875 52.273438 34.46875 53.230469 C 34.46875 54.890625 35.898438 54.941406 35.898438 56.226562 C 35.898438 57.183594 36.101562 58.332031 37.234375 58.460938 C 38.0625 58.558594 38.824219 60.8125 39.347656 61.714844 C 39.546875 61.714844 40.632812 62.597656 40.757812 62.789062 C 41.265625 63.582031 40.660156 63.410156 40.660156 64.03125 C 40.660156 64.480469 40.980469 64.675781 41.171875 65.050781 C 41.195312 65.058594 41.253906 65.199219 41.324219 65.398438 Z M 41.324219 37.53125 " fill-opacity="1" fill-rule="evenodd"/><path fill="#ffffff" d="M 41.871094 16.019531 C 41.722656 16.023438 41.546875 16.140625 41.324219 16.40625 L 41.324219 37.53125 L 73.144531 37.53125 C 73.132812 37.523438 73.117188 37.515625 73.105469 37.503906 C 72.925781 37.382812 73.175781 36.796875 73.175781 36.601562 C 73.175781 35.875 72.699219 35.65625 72.699219 34.863281 C 72.699219 34.585938 72.769531 33.824219 72.628906 33.652344 C 72.097656 32.996094 71.5625 33.566406 71.101562 32.4375 L 71.230469 22.574219 C 70.878906 22.101562 67.734375 22.019531 67.714844 21.292969 C 67.695312 20.597656 66.511719 21.003906 66.054688 20.851562 C 65.441406 20.640625 65.609375 20.234375 65.210938 19.835938 C 64.300781 18.925781 64.230469 20.835938 63.226562 20.289062 C 62.585938 19.9375 62.726562 19.742188 61.890625 19.953125 C 61.789062 19.953125 61.15625 20.40625 61.019531 20.492188 C 60.753906 20.664062 60.746094 20.449219 60.496094 20.335938 C 59.675781 19.972656 59.914062 20.621094 59.335938 20.660156 C 58.941406 20.683594 58.832031 21.019531 58.507812 21.257812 C 58.089844 21.570312 57.816406 21.175781 57.628906 20.902344 C 57.273438 20.382812 57.621094 19.851562 56.863281 20.1875 C 56.507812 20.34375 55.957031 20.621094 55.957031 20.089844 C 55.957031 19.777344 54.777344 20.261719 53.894531 20.378906 C 53.523438 20.429688 53.148438 19.945312 53.023438 20.066406 C 52.527344 20.5625 52.480469 19.886719 52.214844 19.78125 C 51.460938 19.488281 52.015625 19.140625 50.828125 19.59375 C 49.492188 20.101562 49.679688 19.234375 48.875 18.925781 C 48.164062 18.652344 48.019531 17.453125 46.726562 18.261719 C 46.640625 18.316406 46.046875 19.5625 45.917969 19.070312 C 45.808594 18.648438 45.449219 17.976562 45.011719 17.976562 C 43.695312 17.976562 42.835938 18.210938 42.53125 17.117188 C 42.363281 16.523438 42.191406 16.007812 41.871094 16.019531 Z M 30.632812 29.582031 L 28.785156 35.292969 L 22.769531 35.28125 L 27.644531 38.796875 L 25.773438 44.5 L 30.632812 40.964844 L 35.492188 44.5 L 33.621094 38.796875 L 38.496094 35.28125 L 32.480469 35.292969 Z M 30.632812 29.582031 " fill-opacity="1" fill-rule="evenodd"/></svg>