<svg xmlns="http://www.w3.org/2000/svg" xmlns:xlink="http://www.w3.org/1999/xlink" width="150" zoomAndPan="magnify" viewBox="0 0 112.5 112.499997" height="150" preserveAspectRatio="xMidYMid meet" version="1.0"><defs><g/><clipPath id="7480041d9e"><path d="M 0 0 L 112.003906 0 L 112.003906 112.003906 L 0 112.003906 Z M 0 0 " clip-rule="nonzero"/></clipPath><clipPath id="15a5a23361"><path d="M 2.0625 1.378906 L 44 1.378906 L 44 34 L 2.0625 34 Z M 2.0625 1.378906 " clip-rule="nonzero"/></clipPath><clipPath id="e1a7a4119f"><path d="M 66 86 L 109.585938 86 L 109.585938 110.394531 L 66 110.394531 Z M 66 86 " clip-rule="nonzero"/></clipPath></defs><g clip-path="url(#7480041d9e)"><path fill="#ffffff" d="M 0 0 L 112.003906 0 L 112.003906 112.003906 L 0 112.003906 Z M 0 0 " fill-opacity="1" fill-rule="nonzero"/><path fill="#ffffff" d="M 0 0 L 112.003906 0 L 112.003906 112.003906 L 0 112.003906 Z M 0 0 " fill-opacity="1" fill-rule="nonzero"/></g><path fill="#ffd450" d="M 11.402344 11.53125 L 99.722656 11.53125 L 99.722656 99.964844 L 11.402344 99.964844 Z M 11.402344 11.53125 " fill-opacity="1" fill-rule="nonzero"/><g clip-path="url(#15a5a23361)"><path fill="#ffedaf" d="M 43.699219 11.542969 C 43.738281 11.519531 43.441406 11.710938 42.808594 12.113281 L 41.765625 12.78125 L 40.371094 13.671875 C 35.230469 16.957031 25.171875 23.390625 17.761719 28.128906 C 16.03125 29.234375 14.445312 30.25 13.101562 31.109375 C 11.757812 31.96875 10.792969 32.582031 9.882812 33.167969 C 9.195312 33.605469 8.597656 33.988281 8.683594 33.933594 C 8.582031 33.996094 7.984375 33.492188 7.679688 32.351562 C 7.164062 32.015625 6.03125 31.960938 6.535156 30.804688 C 6.921875 30.144531 5.980469 30.3125 6.058594 29.824219 C 5.519531 29.734375 4.871094 29.703125 5.472656 28.871094 C 5.582031 28.582031 5.707031 28.277344 5.777344 28.011719 C 5.6875 27.847656 5.378906 27.824219 4.75 28.007812 C 5.230469 27.261719 4.023438 27.605469 4.199219 27.078125 C 3.730469 26.542969 3.851562 25.6875 3.261719 25.398438 C 2.316406 24.667969 2.222656 23.839844 2.238281 23.832031 C 2.300781 23.789062 2.058594 23.945312 2.953125 23.375 C 3.242188 23.1875 3.980469 22.71875 4.871094 22.148438 L 6.132812 21.339844 L 7.757812 20.300781 L 9.441406 19.226562 C 10.027344 18.851562 10.648438 18.453125 11.367188 17.992188 L 15.460938 15.378906 C 18.765625 13.261719 22.289062 11.011719 25.519531 8.945312 C 26.328125 8.429688 27.117188 7.925781 27.878906 7.4375 C 28.640625 6.949219 29.378906 6.480469 30.078125 6.03125 C 30.796875 5.570312 31.585938 5.066406 32.039062 4.777344 C 32.378906 4.5625 33.199219 4.035156 33.8125 3.644531 C 34.933594 2.925781 35.25 2.722656 35.332031 2.671875 C 35.871094 2.328125 36.355469 2.019531 36.332031 2.03125 L 37.253906 1.4375 C 37.304688 1.40625 37.488281 1.683594 37.699219 2.210938 C 37.808594 2.46875 38.105469 2.671875 38.328125 2.976562 C 38.554688 3.277344 38.921875 3.535156 38.925781 4.058594 C 38.609375 4.789062 39.683594 4.660156 39.75 5.195312 C 40.109375 5.539062 39.820312 6.320312 40.535156 6.453125 C 41.066406 6.707031 40.484375 7.671875 41.320312 7.714844 C 41.65625 8.074219 41.539062 8.710938 42.03125 8.921875 C 42.160156 9.367188 42.359375 9.734375 42.558594 10.050781 C 42.8125 10.332031 43.023438 10.59375 43.195312 10.8125 C 43.449219 11.308594 43.726562 11.523438 43.703125 11.542969 Z M 43.699219 11.542969 " fill-opacity="0.42" fill-rule="nonzero"/></g><g clip-path="url(#e1a7a4119f)"><path fill="#ffedaf" d="M 109.539062 97.421875 C 109.582031 97.40625 109.246094 97.515625 108.53125 97.75 L 107.355469 98.132812 C 106.894531 98.285156 106.363281 98.457031 105.785156 98.648438 C 99.984375 100.542969 88.640625 104.25 80.28125 106.980469 C 78.332031 107.621094 76.542969 108.203125 75.027344 108.699219 C 73.539062 109.183594 72.421875 109.550781 71.394531 109.886719 C 70.621094 110.140625 69.945312 110.359375 70.039062 110.328125 C 69.929688 110.367188 69.476562 109.726562 69.464844 108.546875 C 69.050781 108.089844 67.96875 107.753906 68.746094 106.761719 C 69.28125 106.21875 68.332031 106.144531 68.527344 105.695312 C 68.027344 105.46875 67.40625 105.277344 68.199219 104.625 C 68.378906 104.367188 68.574219 104.109375 68.710938 103.867188 C 68.660156 103.6875 68.371094 103.585938 67.714844 103.605469 C 68.367188 103.003906 67.109375 103.035156 67.414062 102.566406 C 67.09375 101.929688 67.425781 101.132812 66.925781 100.707031 C 66.191406 99.761719 66.308594 98.9375 66.324219 98.929688 C 66.398438 98.90625 66.125 98.996094 67.128906 98.667969 C 67.457031 98.5625 68.289062 98.289062 69.296875 97.960938 C 69.574219 97.871094 70.039062 97.71875 70.714844 97.496094 C 71.320312 97.296875 71.484375 97.246094 72.550781 96.894531 L 74.445312 96.273438 C 75.105469 96.058594 75.8125 95.828125 76.621094 95.566406 C 78.085938 95.085938 79.640625 94.578125 81.238281 94.054688 C 84.96875 92.835938 88.941406 91.539062 92.585938 90.347656 C 93.496094 90.050781 94.382812 89.757812 95.242188 89.480469 C 96.105469 89.199219 96.933594 88.925781 97.726562 88.667969 C 98.515625 88.410156 99.425781 88.113281 99.9375 87.945312 C 100.316406 87.820312 101.242188 87.519531 101.933594 87.292969 C 103.199219 86.878906 103.558594 86.761719 103.652344 86.730469 C 104.257812 86.535156 104.804688 86.355469 104.777344 86.363281 L 105.820312 86.023438 C 105.878906 86.003906 105.988281 86.316406 106.054688 86.878906 C 106.101562 87.15625 106.335938 87.429688 106.476562 87.78125 C 106.621094 88.125 106.910156 88.46875 106.785156 88.976562 C 106.296875 89.605469 107.367188 89.753906 107.296875 90.285156 C 107.558594 90.710938 107.085938 91.390625 107.746094 91.699219 C 108.195312 92.078125 107.394531 92.867188 108.1875 93.117188 C 108.421875 93.550781 108.148438 94.136719 108.574219 94.464844 C 108.585938 94.925781 108.6875 95.332031 108.800781 95.691406 C 108.976562 96.027344 109.117188 96.332031 109.230469 96.585938 C 109.351562 97.132812 109.566406 97.410156 109.535156 97.421875 Z M 109.539062 97.421875 " fill-opacity="0.42" fill-rule="nonzero"/></g><g fill="#000000" fill-opacity="1"><g transform="translate(26.330777, 76.894597)"><g><path d="M 24.898438 -43.4375 C 24.777344 -43.378906 24.480469 -43.257812 23.886719 -43.140625 C 23.292969 -42.960938 22.699219 -42.78125 21.984375 -42.605469 C 21.273438 -42.367188 20.679688 -42.1875 20.085938 -42.011719 C 19.488281 -41.832031 19.191406 -41.714844 19.074219 -41.714844 C 18.660156 -41.476562 18.242188 -41.355469 17.828125 -41.238281 C 17.410156 -41.121094 16.996094 -41 16.578125 -40.824219 C 16.339844 -40.703125 16.222656 -40.824219 16.164062 -41.058594 C 16.101562 -41.179688 16.101562 -41.355469 16.101562 -41.535156 C 16.101562 -41.652344 15.925781 -41.832031 15.6875 -42.070312 C 15.449219 -42.25 15.09375 -42.308594 14.675781 -42.25 C 14.203125 -42.128906 14.023438 -41.953125 14.082031 -41.773438 C 14.082031 -41.535156 14.140625 -41.296875 14.203125 -41.058594 C 14.261719 -40.761719 14.203125 -40.464844 14.082031 -40.109375 C 13.90625 -39.753906 13.429688 -39.457031 12.714844 -39.097656 C 10.101562 -37.910156 8.140625 -36.960938 6.832031 -36.367188 C 5.464844 -35.710938 4.515625 -35.238281 3.921875 -34.941406 C 3.328125 -34.582031 2.972656 -34.40625 2.972656 -34.285156 C 2.910156 -34.167969 2.910156 -34.046875 3.03125 -33.929688 C 3.148438 -33.632812 3.386719 -33.453125 3.683594 -33.453125 C 3.921875 -33.453125 4.335938 -33.511719 4.871094 -33.75 C 5.40625 -33.988281 6.121094 -34.285156 6.953125 -34.703125 C 7.785156 -35.117188 8.914062 -35.652344 10.21875 -36.304688 C 11.289062 -36.78125 12.121094 -37.199219 12.714844 -37.496094 C 13.308594 -37.792969 13.726562 -37.96875 13.964844 -38.03125 C 14.203125 -38.03125 14.378906 -37.910156 14.378906 -37.671875 C 14.378906 -37.375 14.4375 -36.960938 14.4375 -36.367188 C 14.4375 -32.085938 14.558594 -28.046875 14.675781 -24.304688 C 14.796875 -20.5 14.675781 -17.113281 14.320312 -14.140625 C 13.964844 -11.113281 13.191406 -8.496094 12.0625 -6.359375 C 10.933594 -4.21875 9.152344 -2.613281 6.773438 -1.546875 C 5.585938 -0.949219 4.574219 -0.832031 3.804688 -1.1875 C 3.03125 -1.546875 2.734375 -2.257812 2.851562 -3.328125 C 2.972656 -4.398438 3.625 -5.765625 4.8125 -7.488281 C 6 -9.210938 7.902344 -11.230469 10.636719 -13.546875 C 10.816406 -13.726562 10.933594 -13.84375 10.992188 -13.964844 C 11.050781 -14.082031 11.050781 -14.261719 10.992188 -14.617188 C 10.875 -14.855469 10.753906 -14.972656 10.636719 -15.09375 C 10.457031 -15.152344 10.21875 -15.09375 9.921875 -14.855469 C 8.734375 -13.785156 7.605469 -12.777344 6.535156 -11.824219 C 5.40625 -10.816406 4.398438 -9.6875 3.503906 -8.496094 C 2.078125 -6.597656 1.367188 -4.992188 1.367188 -3.683594 C 1.367188 -2.375 1.722656 -1.367188 2.554688 -0.773438 C 3.328125 -0.117188 4.398438 0.117188 5.765625 0 C 7.128906 -0.117188 8.554688 -0.714844 9.984375 -1.78125 C 11.410156 -2.792969 12.65625 -4.277344 13.84375 -6.238281 C 15.035156 -8.199219 15.804688 -10.695312 16.28125 -13.785156 C 16.28125 -14.203125 16.339844 -14.914062 16.398438 -15.867188 C 16.398438 -16.816406 16.460938 -17.945312 16.519531 -19.253906 C 16.519531 -20.5 16.578125 -21.867188 16.578125 -23.351562 L 16.578125 -27.867188 C 16.578125 -31.316406 16.519531 -35.117188 16.519531 -39.277344 C 18.660156 -40.167969 20.382812 -40.824219 21.628906 -41.296875 C 22.816406 -41.773438 23.769531 -42.128906 24.363281 -42.367188 C 24.957031 -42.605469 25.371094 -42.722656 25.550781 -42.84375 C 25.667969 -42.960938 25.789062 -43.082031 25.789062 -43.257812 C 25.789062 -43.316406 25.730469 -43.378906 25.609375 -43.496094 C 25.492188 -43.613281 25.253906 -43.554688 24.898438 -43.4375 Z M 24.898438 -43.4375 "/></g></g></g><g fill="#000000" fill-opacity="1"><g transform="translate(44.612583, 76.894597)"><g/></g></g><g fill="#000000" fill-opacity="1"><g transform="translate(50.554213, 76.894597)"><g/></g></g><g fill="#000000" fill-opacity="1"><g transform="translate(56.495842, 76.894597)"><g/></g></g><g fill="#000000" fill-opacity="1"><g transform="translate(62.459108, 76.894597)"><g><path d="M 22.34375 -31.078125 C 20.855469 -31.195312 19.371094 -31.019531 17.886719 -30.601562 C 16.933594 -30.304688 16.222656 -30.066406 15.804688 -29.949219 C 15.332031 -29.828125 15.035156 -29.890625 14.914062 -30.1875 C 14.738281 -30.484375 14.675781 -31.078125 14.738281 -31.910156 C 14.738281 -32.742188 14.796875 -33.988281 14.796875 -35.652344 C 14.796875 -36.839844 14.855469 -37.851562 14.972656 -38.683594 C 15.09375 -39.515625 15.210938 -40.226562 15.332031 -40.824219 C 15.449219 -41.417969 15.507812 -41.832031 15.507812 -42.128906 C 15.507812 -42.425781 15.390625 -42.605469 15.152344 -42.722656 C 14.796875 -42.78125 14.617188 -42.78125 14.558594 -42.78125 C 14.4375 -42.722656 14.378906 -42.78125 14.378906 -43.019531 C 14.320312 -43.019531 14.320312 -43.082031 14.320312 -43.140625 C 14.320312 -43.140625 14.261719 -43.199219 14.261719 -43.257812 C 14.140625 -43.257812 13.90625 -43.316406 13.488281 -43.4375 C 13.011719 -43.554688 12.714844 -43.554688 12.597656 -43.554688 C 12.359375 -43.496094 12.121094 -43.082031 11.824219 -42.367188 C 11.46875 -41.652344 11.113281 -40.761719 10.695312 -39.691406 C 10.28125 -38.625 9.863281 -37.433594 9.449219 -36.1875 C 9.03125 -34.941406 8.675781 -33.75 8.320312 -32.679688 C 7.960938 -31.613281 7.726562 -30.660156 7.488281 -29.890625 C 7.25 -29.117188 7.070312 -28.699219 7.070312 -28.582031 C 6.953125 -28.105469 6.832031 -27.808594 6.773438 -27.570312 C 6.65625 -27.332031 6.597656 -27.214844 6.476562 -27.097656 C 6.359375 -26.976562 6.179688 -26.859375 5.941406 -26.800781 C 5.703125 -26.679688 5.40625 -26.621094 5.050781 -26.5 C 4.457031 -26.265625 3.386719 -25.847656 1.84375 -25.253906 C 0.296875 -24.660156 -1.367188 -24.007812 -3.148438 -23.234375 C -4.992188 -22.460938 -6.773438 -21.628906 -8.554688 -20.738281 C -10.339844 -19.847656 -11.707031 -19.015625 -12.714844 -18.242188 C -12.953125 -18.003906 -12.953125 -17.765625 -12.835938 -17.527344 C -12.714844 -17.230469 -12.417969 -17.054688 -12.0625 -16.996094 C -11.824219 -16.996094 -11.648438 -16.996094 -11.527344 -17.054688 C -11.410156 -17.054688 -11.230469 -17.171875 -10.992188 -17.351562 C -10.753906 -17.46875 -10.457031 -17.707031 -9.984375 -18.003906 C -9.507812 -18.242188 -8.855469 -18.660156 -7.902344 -19.132812 C -7.425781 -19.371094 -6.714844 -19.726562 -5.824219 -20.203125 C -4.992188 -20.617188 -4.039062 -21.09375 -2.972656 -21.570312 C -1.960938 -22.046875 -0.949219 -22.460938 0.117188 -22.9375 C 1.1875 -23.410156 2.140625 -23.769531 2.972656 -24.125 C 3.804688 -24.421875 4.515625 -24.601562 5.050781 -24.71875 C 5.585938 -24.839844 5.824219 -24.777344 5.824219 -24.601562 C 5.703125 -24.125 5.527344 -23.410156 5.289062 -22.519531 C 5.050781 -21.628906 4.695312 -20.617188 4.335938 -19.488281 C 3.980469 -18.300781 3.566406 -17.113281 3.148438 -15.867188 C 2.675781 -14.558594 2.316406 -13.371094 2.019531 -12.242188 C 1.664062 -11.050781 1.425781 -10.042969 1.1875 -9.089844 C 0.949219 -8.140625 0.890625 -7.425781 1.011719 -6.953125 C 1.011719 -6.597656 1.128906 -6.359375 1.367188 -6.238281 C 1.605469 -6.121094 1.84375 -6.0625 2.078125 -6.0625 C 2.316406 -6.0625 2.496094 -6.0625 2.675781 -6.179688 C 2.851562 -6.296875 2.910156 -6.417969 2.910156 -6.65625 C 2.792969 -7.011719 2.851562 -7.488281 2.972656 -8.199219 C 3.089844 -8.855469 3.207031 -9.566406 3.445312 -10.339844 C 3.625 -11.050781 3.804688 -11.765625 4.039062 -12.417969 C 4.21875 -13.074219 4.398438 -13.609375 4.515625 -13.964844 C 5.230469 -16.28125 5.824219 -18.183594 6.296875 -19.667969 C 6.714844 -21.152344 7.070312 -22.34375 7.367188 -23.234375 C 7.605469 -24.125 7.84375 -24.777344 8.082031 -25.195312 C 8.257812 -25.609375 8.496094 -25.90625 8.855469 -26.144531 C 9.152344 -26.382812 9.566406 -26.5625 10.101562 -26.679688 C 10.578125 -26.800781 11.289062 -26.976562 12.242188 -27.273438 C 12.476562 -27.332031 12.597656 -27.273438 12.714844 -27.15625 C 12.777344 -26.976562 12.835938 -26.5 12.835938 -25.667969 C 12.835938 -24.839844 12.777344 -23.589844 12.777344 -21.925781 C 12.777344 -20.261719 12.777344 -17.945312 12.777344 -14.972656 L 12.835938 -14.972656 L 12.835938 -7.128906 C 12.835938 -5.230469 12.835938 -3.742188 12.953125 -2.734375 C 13.011719 -1.722656 13.132812 -1.070312 13.371094 -0.714844 C 13.546875 -0.355469 13.84375 -0.179688 14.261719 -0.0585938 C 14.617188 0.0585938 14.914062 0.0585938 15.152344 -0.179688 C 15.390625 -0.414062 15.507812 -0.59375 15.449219 -0.832031 C 15.332031 -1.246094 15.210938 -1.722656 15.09375 -2.257812 C 14.972656 -2.734375 14.914062 -3.386719 14.855469 -4.160156 C 14.796875 -4.933594 14.738281 -5.882812 14.738281 -7.070312 C 14.675781 -8.199219 14.675781 -9.6875 14.675781 -11.46875 C 14.675781 -13.25 14.675781 -15.332031 14.675781 -17.828125 C 14.675781 -20.320312 14.738281 -23.292969 14.796875 -26.738281 C 14.796875 -27.273438 14.796875 -27.628906 14.855469 -27.867188 C 14.914062 -28.046875 15.152344 -28.226562 15.628906 -28.402344 C 16.101562 -28.582031 16.816406 -28.820312 17.886719 -29.117188 C 18.957031 -29.414062 20.441406 -29.949219 22.460938 -30.660156 C 22.460938 -30.660156 22.519531 -30.660156 22.519531 -30.722656 C 22.519531 -30.78125 22.519531 -30.839844 22.578125 -30.898438 C 22.578125 -31.019531 22.460938 -31.078125 22.34375 -31.078125 Z M 12.179688 -28.9375 L 10.042969 -28.226562 C 9.566406 -28.046875 9.269531 -27.988281 9.152344 -28.105469 C 9.03125 -28.226562 9.03125 -28.460938 9.152344 -28.820312 C 9.269531 -29.175781 9.507812 -29.769531 9.746094 -30.484375 C 10.457031 -32.5625 11.050781 -34.226562 11.527344 -35.535156 C 11.945312 -36.78125 12.417969 -37.96875 12.953125 -39.160156 C 12.714844 -37.257812 12.65625 -35.652344 12.714844 -34.40625 C 12.714844 -33.097656 12.777344 -32.085938 12.835938 -31.316406 C 12.835938 -30.542969 12.835938 -30.007812 12.777344 -29.652344 C 12.714844 -29.292969 12.539062 -29.058594 12.179688 -28.9375 Z M 12.179688 -28.9375 "/></g></g></g></svg>