<svg xmlns="http://www.w3.org/2000/svg" xmlns:xlink="http://www.w3.org/1999/xlink" width="100" zoomAndPan="magnify" viewBox="0 0 75 74.999997" height="100" preserveAspectRatio="xMidYMid meet" version="1.0"><defs><clipPath id="201fa3a007"><path d="M 0 1.875 L 75 1.875 L 75 73.125 L 0 73.125 Z M 0 1.875 " clip-rule="nonzero"/></clipPath></defs><path fill="#8c6239" d="M 89.941406 72.964844 C 89.980469 72.9375 90.023438 72.910156 90.078125 72.894531 C 90.089844 72.894531 90.089844 72.882812 90.105469 72.882812 C 88.945312 72.488281 87.746094 72.242188 86.503906 72.160156 C 86.488281 72.175781 86.488281 72.203125 86.476562 72.214844 C 86.449219 72.296875 86.421875 72.324219 86.378906 72.308594 C 86.367188 72.28125 86.378906 72.269531 86.394531 72.230469 L 86.433594 72.148438 C 86.132812 72.132812 85.820312 72.121094 85.507812 72.121094 C 83.597656 72.121094 81.753906 72.488281 80.007812 73.222656 C 79.191406 73.5625 78.425781 73.984375 77.691406 74.460938 C 77.691406 74.476562 77.675781 74.488281 77.675781 74.488281 C 77.664062 74.488281 77.648438 74.503906 77.648438 74.515625 C 77.636719 74.515625 77.636719 74.503906 77.621094 74.503906 C 77.609375 74.515625 77.582031 74.53125 77.566406 74.542969 L 77.566406 74.585938 L 77.472656 74.679688 L 77.417969 74.679688 L 77.402344 74.777344 C 77.363281 74.789062 77.335938 74.804688 77.335938 74.816406 L 77.265625 74.84375 C 77.253906 74.84375 77.253906 74.832031 77.253906 74.816406 C 77.265625 74.789062 77.292969 74.761719 77.363281 74.734375 L 77.375 74.722656 C 77.375 74.707031 77.390625 74.707031 77.390625 74.695312 C 77.199219 74.832031 77.007812 74.980469 76.816406 75.128906 C 76.367188 75.484375 75.945312 75.851562 75.535156 76.261719 C 75.316406 76.476562 75.109375 76.710938 74.90625 76.929688 L 74.960938 76.941406 C 74.949219 76.96875 74.921875 76.980469 74.878906 76.96875 L 74.867188 76.96875 C 74.703125 77.160156 74.539062 77.351562 74.386719 77.554688 C 74.414062 77.566406 74.429688 77.59375 74.429688 77.648438 L 74.511719 77.675781 C 74.523438 77.664062 74.539062 77.648438 74.550781 77.636719 C 76.078125 75.703125 78.097656 74.175781 80.433594 73.265625 L 80.363281 73.238281 C 80.378906 73.210938 80.40625 73.195312 80.445312 73.210938 L 80.5 73.238281 C 80.703125 73.15625 80.910156 73.085938 81.113281 73.019531 L 81.128906 72.976562 C 81.140625 72.992188 81.15625 72.992188 81.167969 72.992188 C 81.183594 72.992188 81.183594 72.992188 81.195312 72.976562 C 81.195312 72.964844 81.210938 72.964844 81.195312 72.949219 C 81.195312 72.894531 81.210938 72.882812 81.25 72.894531 L 81.277344 72.910156 C 81.292969 72.867188 81.304688 72.855469 81.320312 72.855469 C 81.332031 72.855469 81.347656 72.828125 81.359375 72.800781 L 81.359375 72.894531 C 81.332031 72.910156 81.304688 72.9375 81.292969 72.964844 C 81.753906 72.8125 82.246094 72.691406 82.738281 72.597656 C 82.722656 72.570312 82.710938 72.542969 82.710938 72.527344 L 82.777344 72.527344 C 82.804688 72.542969 82.820312 72.554688 82.820312 72.570312 C 83.324219 72.460938 83.828125 72.390625 84.347656 72.351562 L 84.414062 72.324219 L 84.402344 72.335938 C 84.769531 72.308594 85.136719 72.296875 85.519531 72.296875 C 87.074219 72.296875 88.578125 72.554688 89.96875 73.019531 C 89.96875 73.003906 89.96875 72.992188 89.941406 72.964844 Z M 82 72.746094 L 81.972656 72.734375 L 82 72.679688 L 82.027344 72.691406 Z M 85.125 72.230469 C 85.109375 72.242188 85.109375 72.242188 85.097656 72.242188 L 85.054688 72.230469 C 85.042969 72.230469 85.03125 72.230469 85.015625 72.230469 C 85.003906 72.242188 84.976562 72.242188 84.949219 72.230469 L 84.921875 72.214844 L 84.878906 72.242188 C 84.867188 72.230469 84.867188 72.203125 84.839844 72.1875 C 84.824219 72.1875 84.8125 72.175781 84.824219 72.160156 C 84.824219 72.148438 84.839844 72.148438 84.851562 72.148438 L 84.867188 72.160156 C 84.960938 72.175781 85.042969 72.1875 85.097656 72.203125 Z M 85.125 72.230469 " fill-opacity="1" fill-rule="nonzero"/><path fill="#8c6239" d="M 71.699219 80.386719 L 71.742188 80.402344 L 71.753906 80.359375 C 71.78125 80.347656 71.796875 80.347656 71.796875 80.332031 C 71.796875 80.320312 71.808594 80.320312 71.824219 80.304688 L 71.835938 80.277344 L 71.878906 80.292969 L 71.890625 80.277344 L 71.945312 80.265625 C 71.972656 80.210938 71.988281 80.167969 72.015625 80.15625 L 72.070312 80.140625 L 72.097656 80.089844 C 72.136719 80.0625 72.179688 80.019531 72.207031 79.980469 C 72.234375 79.9375 72.261719 79.910156 72.300781 79.898438 L 72.273438 79.980469 L 72.273438 80.019531 C 72.273438 80.035156 72.261719 80.035156 72.246094 80.035156 C 72.234375 80.046875 72.207031 80.0625 72.207031 80.089844 L 72.191406 80.101562 L 72.152344 80.117188 C 72.152344 80.128906 72.136719 80.140625 72.125 80.140625 C 72.109375 80.140625 72.097656 80.15625 72.082031 80.183594 C 72.070312 80.210938 72.070312 80.238281 72.070312 80.265625 C 72.070312 80.292969 72.054688 80.320312 72.027344 80.347656 C 71.988281 80.359375 71.960938 80.386719 71.945312 80.414062 L 71.933594 80.429688 C 71.917969 80.457031 71.90625 80.46875 71.90625 80.441406 L 71.851562 80.511719 C 71.863281 80.550781 71.890625 80.578125 71.917969 80.59375 C 71.945312 80.605469 71.972656 80.648438 71.972656 80.714844 C 72.015625 80.726562 72.042969 80.753906 72.027344 80.769531 L 72.070312 80.78125 L 72.070312 80.796875 C 72.300781 80.238281 72.558594 79.691406 72.859375 79.160156 C 72.847656 79.160156 72.847656 79.175781 72.832031 79.175781 L 72.765625 79.175781 C 72.75 79.203125 72.722656 79.214844 72.710938 79.214844 L 72.683594 79.203125 C 72.65625 79.257812 72.628906 79.285156 72.585938 79.285156 C 72.558594 79.285156 72.503906 79.296875 72.449219 79.324219 L 72.464844 79.296875 C 72.476562 79.285156 72.503906 79.269531 72.558594 79.242188 C 72.585938 79.230469 72.601562 79.214844 72.628906 79.203125 C 72.640625 79.1875 72.667969 79.175781 72.695312 79.175781 L 72.710938 79.148438 C 72.792969 79.121094 72.875 79.066406 72.957031 79 C 73.226562 78.535156 73.515625 78.085938 73.828125 77.664062 L 73.816406 77.664062 L 73.84375 77.609375 L 73.871094 77.621094 C 74.007812 77.433594 74.15625 77.242188 74.304688 77.0625 C 74.292969 77.0625 74.265625 77.0625 74.25 77.0625 L 74.183594 77.214844 C 74.128906 77.171875 74.101562 77.1875 74.101562 77.226562 C 74.101562 77.28125 74.089844 77.296875 74.046875 77.28125 L 74.019531 77.269531 C 74.007812 77.308594 73.992188 77.324219 73.980469 77.324219 C 73.964844 77.335938 73.953125 77.351562 73.9375 77.378906 L 73.9375 77.28125 C 73.980469 77.253906 74.007812 77.226562 74.035156 77.1875 C 74.0625 77.144531 74.101562 77.132812 74.140625 77.144531 L 74.183594 77.078125 C 74.222656 76.996094 74.277344 76.941406 74.332031 76.929688 L 74.292969 76.859375 C 74.332031 76.777344 74.332031 76.710938 74.320312 76.65625 L 74.359375 76.585938 L 74.332031 76.574219 C 74.347656 76.546875 74.347656 76.503906 74.332031 76.464844 C 74.320312 76.425781 74.320312 76.382812 74.320312 76.371094 L 74.332031 76.34375 L 74.386719 76.371094 C 74.375 76.410156 74.375 76.4375 74.386719 76.453125 C 74.414062 76.492188 74.414062 76.519531 74.414062 76.519531 C 74.414062 76.558594 74.414062 76.574219 74.414062 76.585938 C 74.414062 76.601562 74.414062 76.628906 74.414062 76.65625 L 74.429688 76.683594 C 74.402344 76.738281 74.402344 76.765625 74.414062 76.765625 C 74.414062 76.792969 74.429688 76.832031 74.441406 76.875 C 75.179688 76 75.996094 75.226562 76.910156 74.558594 C 76.898438 74.558594 76.898438 74.558594 76.882812 74.570312 L 76.871094 74.542969 C 76.871094 74.53125 76.882812 74.53125 76.898438 74.53125 C 76.910156 74.53125 76.925781 74.53125 76.925781 74.515625 C 76.925781 74.515625 76.9375 74.515625 76.9375 74.515625 C 77.308594 74.246094 77.691406 73.984375 78.085938 73.753906 L 77.976562 73.742188 C 77.960938 73.753906 77.949219 73.753906 77.933594 73.753906 C 77.921875 73.753906 77.921875 73.753906 77.894531 73.769531 C 77.867188 73.753906 77.839844 73.742188 77.839844 73.726562 C 77.839844 73.714844 77.8125 73.714844 77.769531 73.726562 C 77.71875 73.6875 77.648438 73.6875 77.554688 73.726562 C 77.511719 73.714844 77.472656 73.699219 77.445312 73.714844 C 77.417969 73.714844 77.390625 73.699219 77.363281 73.699219 C 77.335938 73.6875 77.308594 73.671875 77.265625 73.632812 C 77.117188 73.726562 76.964844 73.835938 76.816406 73.945312 C 76.476562 74.175781 76.148438 74.433594 75.835938 74.707031 L 75.808594 74.761719 L 75.820312 74.75 L 75.835938 74.722656 L 75.820312 74.707031 C 75.492188 74.980469 75.179688 75.265625 74.878906 75.566406 C 74.785156 75.660156 74.6875 75.769531 74.59375 75.867188 L 74.621094 75.878906 C 74.632812 75.878906 74.632812 75.90625 74.605469 75.960938 L 74.605469 76.042969 L 74.59375 76.082031 L 74.550781 76.164062 L 74.484375 76.164062 L 74.429688 76.136719 C 74.441406 76.125 74.457031 76.109375 74.484375 76.097656 C 74.511719 76.082031 74.523438 76.070312 74.550781 76.027344 L 74.605469 75.921875 C 74.167969 76.382812 73.746094 76.886719 73.378906 77.390625 C 73.363281 77.40625 73.363281 77.417969 73.351562 77.417969 L 73.363281 77.417969 L 73.324219 77.5 L 73.308594 77.5 C 72.902344 78.058594 72.546875 78.65625 72.21875 79.269531 L 72.234375 79.269531 C 72.261719 79.285156 72.273438 79.285156 72.273438 79.296875 C 72.273438 79.3125 72.300781 79.324219 72.339844 79.339844 L 72.246094 79.324219 L 72.207031 79.3125 C 72.109375 79.488281 72.027344 79.664062 71.945312 79.84375 C 71.972656 79.84375 72 79.84375 72.015625 79.84375 C 72.082031 79.828125 72.136719 79.84375 72.191406 79.871094 L 72.246094 79.898438 L 72.234375 79.925781 C 72.21875 79.9375 72.191406 79.953125 72.136719 79.925781 C 72.070312 79.910156 72.027344 79.910156 72 79.925781 L 71.917969 79.898438 C 71.835938 80.074219 71.753906 80.238281 71.6875 80.414062 C 71.671875 80.441406 71.671875 80.46875 71.660156 80.484375 L 71.671875 80.484375 Z M 76.652344 74.679688 L 76.722656 74.695312 L 76.707031 74.707031 L 76.640625 74.695312 Z M 76.476562 74.433594 C 76.503906 74.421875 76.542969 74.421875 76.570312 74.433594 L 76.542969 74.488281 L 76.460938 74.488281 C 76.449219 74.488281 76.433594 74.488281 76.421875 74.488281 C 76.40625 74.488281 76.394531 74.488281 76.378906 74.488281 L 76.367188 74.476562 C 76.40625 74.460938 76.449219 74.449219 76.476562 74.433594 Z M 76.476562 74.433594 " fill-opacity="1" fill-rule="nonzero"/><path fill="#ffffff" d="M 23.492188 45.820312 L 0.804688 29.347656 L 28.835938 29.347656 L 37.5 2.6875 L 46.164062 29.347656 L 74.195312 29.347656 L 51.507812 45.820312 L 60.171875 72.484375 L 37.5 56.011719 L 14.8125 72.484375 Z M 23.492188 45.820312 " fill-opacity="1" fill-rule="nonzero"/><g clip-path="url(#201fa3a007)"><path fill="#000000" d="M 74.964844 29.09375 L 46.347656 29.09375 L 37.5 1.875 L 28.652344 29.09375 L 0.0351562 29.09375 L 23.191406 45.90625 L 14.34375 73.125 L 37.5 56.308594 L 60.65625 73.125 L 51.808594 45.90625 Z M 57.921875 69.363281 L 37.5 41.261719 L 37.5 54.527344 L 17.078125 69.363281 L 37.5 41.261719 L 24.890625 45.367188 L 4.484375 30.53125 L 37.515625 41.261719 L 29.71875 30.53125 L 37.515625 6.535156 L 37.515625 41.261719 L 45.308594 30.53125 L 70.546875 30.53125 L 37.5 41.261719 L 50.109375 45.367188 Z M 57.921875 69.363281 " fill-opacity="1" fill-rule="nonzero"/></g></svg>